# xmcd
#
# Track frame offsets: 
#        150
#        21444
#        39394
#        56504
#        71525
#        83543
#        95039
#        109376
#        124241
#        145189
#        156975
#        173448
#        194031
#        209658
#        225470
#        238437
#
# Disc length: 3403 seconds
#
# Revision: 0
# Processed by: cddbd v1.5.2PL0 Copyright (c) Steve Scherf et al.
# Submitted via: ExactAudioCopy v0.99pb4
#
DISCID=e90d4910
DTITLE=Will Ferdy - Nu En Toen - CD 2
DYEAR=2013
DGENRE=Chanson
TTITLE0= Mijn Concerto Voor Jou
TTITLE1= Iedereen Heeft Iemand Nodig
TTITLE2= Rembrandt
TTITLE3= De Straatmus Van Parijs
TTITLE4= Omdat
TTITLE5= Geld, Geld, Geld
TTITLE6= Man Van Rome
TTITLE7= Het Schrijverke
TTITLE8= De Laatste Zeven Dagen
TTITLE9= Met Alleen Maar De Liefde
TTITLE10= De Waarheid
TTITLE11= Muziek
TTITLE12= Christine
TTITLE13= Het Vlakke Land
TTITLE14= Leven Zonder Jou
TTITLE15= Belijdenis
EXTD=
EXTT0=
EXTT1=
EXTT2=
EXTT3=
EXTT4=
EXTT5=
EXTT6=
EXTT7=
EXTT8=
EXTT9=
EXTT10=
EXTT11=
EXTT12=
EXTT13=
EXTT14=
EXTT15=
PLAYORDER=
